HIERARCHY
ROOT Hips
{
  OFFSET 265.287 66.7526 -254.649
  CHANNELS 6 Xposition Yposition Zposition Zrotation Xrotation Yrotation
  JOINT LeftUpLeg
  {
    OFFSET 8.64259 1.95398 -2.38835
    CHANNELS 3 Zrotation Xrotation Yrotation
    JOINT LeftLeg
    {
      OFFSET 43.7702 0 0
      CHANNELS 3 Zrotation Xrotation Yrotation
      JOINT LeftFoot
      {
        OFFSET 40.6238 0 0
        CHANNELS 3 Zrotation Xrotation Yrotation
        JOINT LeftToeBase
        {
          OFFSET 12.7242 0 0
          CHANNELS 3 Zrotation Xrotation Yrotation
          End Site
          {
            OFFSET 0 0 0
          }
        }
      }
    }
  }
  JOINT RightUpLeg
  {
    OFFSET -8.2249 1.95398 -2.59336
    CHANNELS 3 Zrotation Xrotation Yrotation
    JOINT RightLeg
    {
      OFFSET 43.5653 0 0
      CHANNELS 3 Zrotation Xrotation Yrotation
      JOINT RightFoot
      {
        OFFSET 40.6238 0 0
        CHANNELS 3 Zrotation Xrotation Yrotation
        JOINT RightToeBase
        {
          OFFSET 12.7242 0 0
          CHANNELS 3 Zrotation Xrotation Yrotation
          End Site
          {
            OFFSET 0 0 0
          }
        }
      }
    }
  }
  JOINT Spine
  {
    OFFSET 0.165834 0.87714 6.61349
    CHANNELS 3 Zrotation Xrotation Yrotation
    JOINT Spine1
    {
      OFFSET 7.38963 1.71661e-005 0
      CHANNELS 3 Zrotation Xrotation Yrotation
      JOINT Spine2
      {
        OFFSET 11.9445 1.14441e-005 0
        CHANNELS 3 Zrotation Xrotation Yrotation
        JOINT Spine3
        {
          OFFSET 14.7254 4.19617e-005 0
          CHANNELS 3 Zrotation Xrotation Yrotation
          JOINT Spine4
          {
            OFFSET 10.9679 0 0
            CHANNELS 3 Zrotation Xrotation Yrotation
            JOINT RightShoulder
            {
              OFFSET 2.46616 -1.6653 3.69651
              CHANNELS 3 Zrotation Xrotation Yrotation
              JOINT RightArm
              {
                OFFSET 13.0012 0 0
                CHANNELS 3 Zrotation Xrotation Yrotation
                JOINT RightForeArm
                {
                  OFFSET 28.7848 1.52588e-005 0
                  CHANNELS 3 Zrotation Xrotation Yrotation
                  JOINT RightHand
                  {
                    OFFSET 26.5688 1.52588e-005 0
                    CHANNELS 3 Zrotation Xrotation Yrotation
                    End Site
                    {
                      OFFSET 0 0 0
                    }
                  }
                }
              }
            }
            JOINT LeftShoulder
            {
              OFFSET 2.38034 -1.29275 -3.7523
              CHANNELS 3 Zrotation Xrotation Yrotation
              JOINT LeftArm
              {
                OFFSET 16.3182 6.10351e-005 0
                CHANNELS 3 Zrotation Xrotation Yrotation
                JOINT LeftForeArm
                {
                  OFFSET 27.0901 0 0
                  CHANNELS 3 Zrotation Xrotation Yrotation
                  JOINT LeftHand
                  {
                    OFFSET 24.5451 1.52588e-005 0
                    CHANNELS 3 Zrotation Xrotation Yrotation
                    End Site
                    {
                      OFFSET 0 0 0
                    }
                  }
                }
              }
            }
            JOINT Neck
            {
              OFFSET 5.0226 -0.0266342 0
              CHANNELS 3 Zrotation Xrotation Yrotation
              JOINT Head
              {
                OFFSET 6.69364 2.86102e-005 0
                CHANNELS 3 Zrotation Xrotation Yrotation
                End Site
                {
                  OFFSET 0 0 0
                }
              }
            }
          }
        }
      }
    }
  }
}
MOTION
Frames:	9
Frame Time:	0.0416667
-5.06922 83.1709 -8.35998 127.145 42.715 67.0756 -179.948 27.5827 93.6257 -58.9111 14.7033 3.96404 54.8658 0.171634 10.7687 55.1165 -8.19208 -0.532361 174.716 22.4758 93.7107 -65.4088 -25.6348 -0.542248 53.5676 3.08725 -4.5675 49.6842 -2.90832 1.46634 -0.623769 9.8222 -90.3658 7.22502 -1.40327 -0.656986 -4.44531 -1.43083 -0.594579 -26.9835 -1.14097 -1.04838 -6.97083 -1.14094 -1.04838 100.701 -49.5054 -84.4635 29.4448 -13.6024 14.1847 -1.70605 -16.8306 -24.66 -2.90414 -0.0322326 -4.8542 -88.1824 -53.2973 81.8002 -1.6815 20.7555 -19.2854 18.9559 3.00932 -55.5767 10.7046 -0.48294 -7.79262 -4.16132 2.83892 -6.82537 -8.38828 2.92888 14.0049 
3.95452 84.8289 -19.4873 123.998 40.1807 65.5104 -176.782 22.5261 89.4835 -31.4118 15.8616 2.00428 38.2435 -7.47443 0.787744 63.2887 -10.0233 3.20259 175.481 16.8912 89.2444 -73.0269 -22.5715 -2.82494 60.1194 -2.04183 -5.02196 52.0829 -3.29007 0.859934 -0.33221 9.6086 -89.8337 7.65475 -0.590858 0.36042 -4.01617 -0.574412 0.386063 -26.5518 -0.671874 0.166167 -6.53916 -0.671838 0.16618 101.294 -48.8832 -83.5439 29.4789 -14.7078 12.1678 -0.923581 -12.4069 -26.5057 -3.94187 -0.0271165 -5.0372 -87.3763 -52.8996 82.9062 -4.37153 23.2733 -11.3805 21.8041 0.842877 -61.2854 2.6578 -0.172461 -6.65478 -4.82663 2.2896 -6.90491 -9.78532 2.20359 13.5804 
12.6367 84.2458 -30.1459 120.544 34.3638 70.4898 -171.552 24.0295 91.7133 -43.6307 17.5936 -0.447296 44.8178 -5.19479 7.08702 47.559 -5.7327 -2.50485 177.991 22.5529 89.5626 -85.5093 -19.5812 -3.7066 44.3308 7.92367 8.65209 44.2787 -2.04119 1.41518 -0.189545 9.63973 -89.8562 7.59456 -0.316044 0.299758 -4.07641 -0.302529 0.313372 -26.6115 -0.391534 0.190917 -6.59889 -0.391512 0.190921 100.614 -47.7286 -84.6523 29.3993 -19.6161 10.4047 3.20897 -1.8474 -31.544 -4.20342 0.0597652 -7.65565 -88.0728 -51.8694 81.7118 -7.03194 20.1419 -1.48262 24.4681 -0.742807 -65.9924 -3.09629 -0.0697258 -8.49116 -2.1159 4.65205 -8.56833 -10.1044 4.66772 17.2646 
20.1392 83.882 -38.6781 122.518 34.4314 67.7379 -170.488 21.801 89.1522 -58.1854 20.5456 -1.19129 56.8687 1.13511 20.6572 38.7838 -3.02063 -5.23039 175.128 27.7368 87.0742 -88.4943 -16.8315 -3.18564 51.1276 5.34878 14.9962 34.8022 -0.791476 -1.9434 -0.737943 9.98329 -89.5572 6.9118 -1.2842 0.927025 -4.7589 -1.24215 0.982632 -27.2981 -1.50341 0.498161 -7.28542 -1.50342 0.498157 101.09 -49.4579 -83.8546 29.02 -19.7319 8.10538 5.49 2.20336 -33.9871 -9.918 -0.0081709 -5.53861 -87.9786 -51.034 81.7077 -0.379642 22.1791 -8.36863 26.1984 4.0485 -60.3666 -2.81715 -0.0742787 -8.98009 -0.303246 5.59764 -9.61901 -10.4767 5.64028 19.9453 
26.6315 85.3752 -45.926 118.929 35.2114 70.7855 -169.615 19.4978 89.588 -61.9973 22.5096 -1.20677 61.5955 4.88251 24.2271 43.8759 -4.71589 -1.98021 171.732 31.8097 89.0398 -71.6694 -16.8915 -0.390382 54.1106 4.85574 15.9694 42.6763 -1.97804 2.88947 -0.71769 9.85796 -89.648 7.16171 -1.28165 0.751763 -4.50885 -1.24732 0.807438 -27.0486 -1.44832 0.331754 -7.03596 -1.44833 0.331743 101.283 -50.3626 -83.5363 30.8894 -21.6325 8.82971 7.33091 4.58607 -34.3158 -10.4127 -0.0203939 -5.17308 -88.4317 -50.9524 81.0192 5.23732 20.0555 -19.7514 22.0912 8.88835 -52.2806 -3.12981 -0.0543195 -9.84322 -0.694801 5.53762 -8.68407 -8.80095 5.70152 20.271 
32.4706 87.156 -52.0858 118.088 40.3224 69.5914 -172.423 17.8634 88.0535 -64.4219 22.2049 -0.207202 59.0589 2.73823 18.9537 49.0938 -6.28367 -0.248223 169.431 27.8122 86.8178 -41.3252 -15.9726 3.79905 45.2644 8.93363 15.4155 52.0277 -2.64894 8.62982 -1.14071 9.84735 -89.6259 7.18667 -2.1168 0.833699 -4.48286 -2.07805 0.926084 -27.0318 -2.26947 0.158667 -7.01917 -2.26946 0.158663 101.396 -50.977 -83.3515 32.8318 -21.4322 11.6608 4.97055 2.52042 -36.2193 -3.36141 -0.000728245 -6.1218 -87.9376 -49.9373 81.575 2.49574 16.4482 -23.8397 11.384 -0.19196 -52.2717 2.29203 -0.162717 -6.81394 0.0288487 5.14071 -7.86276 -5.38247 5.85685 19.4845 
38.7778 87.4193 -58.2018 118.113 44.7457 67.8617 -173.502 20.2057 89.6389 -70.8527 21.4432 0.297823 46.9546 -3.82803 1.39291 52.0122 -7.33886 -1.76039 170.92 24.4591 84.2447 -29.8505 -10.8776 4.27996 42.5556 10.59 16.495 34.7579 -0.355525 3.5315 -1.09239 9.8328 -89.7146 7.21267 -2.05861 0.659836 -4.45689 -2.02757 0.749817 -27.0049 -2.16171 0.0103498 -6.99228 -2.16171 0.0103471 101.316 -50.5896 -83.4813 35.7308 -20.3574 16.1792 4.95269 3.44242 -38.5513 -3.48772 0.00858014 -6.54779 -87.4896 -48.9561 82.0784 1.10638 17.9466 -28.827 9.02642 -4.17435 -58.3974 9.04914 -0.294301 -6.52944 -1.78873 3.25643 -5.40204 -0.977616 4.20759 14.8857 
43.6549 86.5223 -63.0143 121.615 47.8316 66.0427 -176.022 24.6957 93.7248 -78.3589 22.8312 1.45454 46.0119 -4.25614 -2.74323 48.8041 -6.18394 0.0152207 168.627 25.8943 84.3784 -43.651 -13.7846 5.33886 53.6033 5.83858 6.34651 20.8203 1.1112 0.0873945 -0.796443 10.2527 -90.1643 6.36859 -1.66026 -0.270717 -5.30125 -1.67054 -0.197386 -27.8437 -1.5021 -0.757284 -7.83107 -1.50209 -0.757283 101.134 -52.2 -83.7304 31.2335 -21.0303 15.0609 3.50055 0.904079 -39.688 -6.43888 0.00291484 -5.77033 -88.4314 -50.766 80.986 4.18993 20.204 -33.8925 13.3711 -5.96693 -67.7744 8.29686 -0.399121 -7.67882 -4.18916 0.490561 -1.72712 6.7304 1.54225 10.02 
46.5856 87.5954 -66.638 117.775 50.2605 70.4564 -176.942 30.3944 95.9638 -71.7348 17.3395 2.19237 51.3258 -1.45909 5.37344 48.644 -6.08487 0.478577 166.186 26.4172 85.3862 -44.9123 -15.332 7.22119 54.5197 4.69158 3.74514 26.1124 0.0822748 2.21687 -0.729737 10.5507 -90.5885 5.76259 -1.70413 -1.11113 -5.90766 -1.75138 -1.03506 -28.4447 -1.29145 -1.57191 -8.43206 -1.29144 -1.57191 100.633 -53.1968 -84.4657 19.8797 -17.533 -1.83723 -3.99939 -17.6321 -30.2091 -3.66927 -0.0556174 -4.03443 -89.2782 -51.2206 79.8144 2.66627 20.1735 -34.7927 19.7758 -4.95971 -70.8576 11.1635 -0.45628 -7.45106 -4.43792 -0.612348 0.672421 15.1857 0.789351 8.97701 
